<svg xmlns="http://www.w3.org/2000/svg" xmlns:xlink="http://www.w3.org/1999/xlink" viewBox="0,0,256,256" width="26px" height="26px"><g fill="#ffffff" fill-rule="nonzero" stroke="none" stroke-width="1" stroke-linecap="butt" stroke-linejoin="miter" stroke-miterlimit="10" stroke-dasharray="" stroke-dashoffset="0" font-family="none" font-weight="none" font-size="none" text-anchor="none" style="mix-blend-mode: normal"><g transform="scale(9.84615,9.84615)"><path d="M23.93359,18.94531c-0.59766,1.32422 -0.88281,1.91797 -1.65234,3.08594c-1.07031,1.63672 -2.58594,3.67578 -4.46094,3.6875c-1.66406,0.01563 -2.09375,-1.08594 -4.35547,-1.06641c-2.26172,0.00781 -2.73437,1.08594 -4.40234,1.07031c-1.87109,-0.01562 -3.30469,-1.85547 -4.37891,-3.48437c-3.00391,-4.57422 -3.32031,-9.9375 -1.46484,-12.78906c1.3125,-2.02344 3.39063,-3.21094 5.34375,-3.21094c1.98438,0 3.23438,1.08984 4.87891,1.08984c1.59375,0 2.5625,-1.09375 4.86328,-1.09375c1.73438,0 3.57422,0.94531 4.88672,2.58203c-4.29687,2.35156 -3.59766,8.48828 0.74219,10.12891zM16.55859,4.40625c0.83594,-1.07031 1.46875,-2.58594 1.24219,-4.12891c-1.36719,0.09375 -2.96094,0.96484 -3.89453,2.08984c-0.84375,1.02734 -1.54297,2.55469 -1.26953,4.03125c1.48828,0.04688 3.02734,-0.83984 3.92188,-1.99219z"></path></g></g></svg>