<svg width="24" height="24" viewBox="0 0 24 24" fill="none" xmlns="http://www.w3.org/2000/svg">
    <path d="M19 9.138c0-.21-.05-.402-.148-.575a1.066 1.066 0 0 0-.425-.41A1.221 1.221 0 0 0 17.831 8c-.323 0-.606.116-.85.35L12 13.285 7.019 8.349A1.194 1.194 0 0 0 6.169 8c-.22 0-.421.05-.602.152-.181.101-.321.238-.42.411A1.14 1.14 0 0 0 5 9.138c0 .315.11.582.33.8l5.784 5.69c.126.136.262.231.408.287.145.057.305.085.478.085s.333-.028.478-.085c.146-.056.282-.151.408-.287l5.783-5.69c.22-.218.331-.485.331-.8z" fill="#35405E"/>
</svg>
