<svg width="24" height="24" viewBox="0 0 24 24" fill="none" xmlns="http://www.w3.org/2000/svg">
<path d="M19 14.8624C19 15.0726 18.9508 15.2641 18.8524 15.4368C18.754 15.6095 18.6123 15.7466 18.4273 15.8479C18.2424 15.9493 18.0436 16 17.8311 16C17.5084 16 17.225 15.8836 16.981 15.6508L12 10.7145L7.01904 15.6508C6.77502 15.8836 6.49165 16 6.16892 16C5.94851 16 5.74779 15.9493 5.56675 15.8479C5.3857 15.7466 5.24598 15.6095 5.14759 15.4368C5.0492 15.2641 5 15.0726 5 14.8624C5 14.547 5.1102 14.2804 5.3306 14.0627L11.1145 8.3717C11.2404 8.23654 11.3762 8.1408 11.5218 8.08448C11.6674 8.02816 11.8268 8 12 8C12.1732 8 12.3326 8.02816 12.4782 8.08448C12.6238 8.1408 12.7596 8.23654 12.8855 8.3717L18.6694 14.0627C18.8898 14.2804 19 14.547 19 14.8624Z" fill="#35405E"/>
</svg>
