<svg width="80" height="80" viewBox="0 0 80 80" fill="none" xmlns="http://www.w3.org/2000/svg">
    <g clip-path="url(#ey9y3vdboa)">
        <rect width="80" height="80" rx="24" fill="url(#whxl6lhchb)"/>
        <path d="M24.594 45.266c0-1.605.27-3.052.812-4.344.552-1.292 1.292-2.313 2.219-3.063.938-.76 1.99-1.14 3.156-1.14h2.235c-.448.562-.896 1.25-1.344 2.062-.438.802-.802 1.735-1.094 2.797-.291 1.052-.437 2.23-.437 3.531 0 1.76.307 3.386.922 4.875.625 1.49 1.64 2.75 3.046 3.782h-2.75a5.56 5.56 0 0 1-3.468-1.172c-1.021-.771-1.828-1.797-2.422-3.078-.584-1.292-.875-2.709-.875-4.25zm7.703-.125c0-1.22.104-2.313.312-3.282.22-.968.547-1.88.985-2.734a19.141 19.141 0 0 1 1.672-2.61c1.177-1.562 2.479-3.27 3.906-5.124a40.83 40.83 0 0 0 3.875-6.172c.302-.584.614-1.052.937-1.407.323-.354.766-.53 1.328-.53.615 0 1.126.202 1.532.609.416.396.625.958.625 1.687 0 .688-.136 1.427-.407 2.219a27.67 27.67 0 0 1-.906 2.375 42.425 42.425 0 0 0-.906 2.25c-.26.698-.39 1.307-.39 1.828 0 .583.213 1.042.64 1.375.427.333.984.5 1.672.5h5.5a2.6 2.6 0 0 1 1.39.375 2.71 2.71 0 0 1 1.328 2.36c0 .437-.072.828-.218 1.171a2.23 2.23 0 0 1-.578.828c-.24.22-.255.422-.047.61.198.187.354.458.469.812.114.344.172.698.172 1.063 0 .51-.115.968-.344 1.375-.219.406-.5.713-.844.922-.281.156-.328.359-.14.609.364.458.546 1.042.546 1.75 0 .615-.177 1.146-.531 1.594a3.027 3.027 0 0 1-1.234.953c-.198.073-.23.219-.094.437.094.167.172.36.234.578.073.23.11.495.11.797 0 .74-.25 1.302-.75 1.688a4.29 4.29 0 0 1-1.641.828c-.417.115-.995.203-1.734.266-.74.073-1.615.109-2.625.109h-2.125c-1.813 0-3.443-.255-4.891-.766-1.448-.51-2.682-1.224-3.703-2.14a9.449 9.449 0 0 1-2.328-3.219c-.532-1.23-.797-2.557-.797-3.984z" fill="#E6906C"/>
    </g>
    <defs>
        <linearGradient id="whxl6lhchb" x1="80" y1="0" x2="-2.89" y2="3.116" gradientUnits="userSpaceOnUse">
            <stop stop-color="#FEF1DE"/>
            <stop offset="1" stop-color="#FDE8E3"/>
        </linearGradient>
        <clipPath id="ey9y3vdboa">
            <rect width="80" height="80" rx="24" fill="#fff"/>
        </clipPath>
    </defs>
</svg>
