<svg width="80" height="80" viewBox="0 0 80 80" fill="none" xmlns="http://www.w3.org/2000/svg">
    <g clip-path="url(#vtum7s5sea)">
        <rect width="80" height="80" rx="24" fill="url(#sru4kmt0wb)"/>
        <path d="M40.625 51.531c-.49 0-.964-.192-1.422-.578-.448-.396-.672-.807-.672-1.234 0-.48.1-.927.297-1.344.208-.427.307-.901.297-1.422 0-.187-.089-.37-.266-.547-.166-.187-.479-.442-.937-.765-.448-.323-1.094-.802-1.938-1.438-.791-.583-1.187-1.266-1.187-2.047 0-.291.062-.541.187-.75.125-.218.25-.427.375-.625s.188-.406.188-.625c0-.198-.1-.39-.297-.578-.198-.187-.48-.443-.844-.766l-2.281-1.984c-1.094-.948-1.938-1.87-2.531-2.766-.584-.895-.828-1.755-.735-2.578.115-.77.5-1.52 1.157-2.25.666-.74 1.52-1.406 2.562-2a14.794 14.794 0 0 1 3.469-1.437 14.651 14.651 0 0 1 3.922-.531c1.812 0 3.437.276 4.875.828 1.437.541 2.448 1.265 3.031 2.172a5.464 5.464 0 0 1-1.125 1.53c-.48.47-1.01.902-1.594 1.298-.583.396-1.156.744-1.718 1.047-.553.302-1.032.552-1.438.75.219.343.396.656.531.937.136.281.203.552.203.813 0 .5-.135.911-.406 1.234-.26.323-.646.484-1.156.484-.406 0-.807-.104-1.203-.312-.386-.219-.75-.432-1.094-.64-.344-.22-.64-.329-.89-.329a.938.938 0 0 0-.579.188c-.156.114-.234.28-.234.5 0 .187.104.427.312.718.22.282.485.563.797.844.323.271.646.5.969.688.323.177.594.265.813.265.302 0 .624-.088.968-.265l1.032-.547c.333-.188.63-.282.89-.282.438 0 .948.157 1.531.47a9.324 9.324 0 0 1 1.703 1.187 8.1 8.1 0 0 1 1.36 1.484c.364.5.547.943.547 1.328 0 .532-.193 1.209-.578 2.032a18.696 18.696 0 0 1-1.47 2.593 25.17 25.17 0 0 1-1.937 2.547c-.677.792-1.328 1.443-1.953 1.953-.625.5-1.135.75-1.531.75zM40 55.656c-2.177 0-4.23-.416-6.156-1.25a16.316 16.316 0 0 1-5.078-3.453 16.317 16.317 0 0 1-3.453-5.078c-.834-1.927-1.25-3.98-1.25-6.156 0-2.177.416-4.224 1.25-6.14a16.397 16.397 0 0 1 3.437-5.095 16.32 16.32 0 0 1 5.078-3.453c1.927-.833 3.98-1.25 6.156-1.25 2.177 0 4.23.417 6.157 1.25a16.267 16.267 0 0 1 5.093 3.453 16.265 16.265 0 0 1 3.453 5.094c.834 1.917 1.25 3.964 1.25 6.14 0 2.178-.416 4.23-1.25 6.157a16.317 16.317 0 0 1-3.453 5.078 16.265 16.265 0 0 1-5.093 3.453c-1.917.834-3.964 1.25-6.141 1.25zm0-2.125c1.885 0 3.661-.364 5.328-1.093a14.028 14.028 0 0 0 4.406-2.985 14.03 14.03 0 0 0 2.985-4.406c.729-1.667 1.093-3.443 1.093-5.328 0-1.886-.364-3.662-1.093-5.328a13.903 13.903 0 0 0-3-4.407A14.03 14.03 0 0 0 45.312 27c-1.666-.73-3.442-1.094-5.328-1.094-1.885 0-3.661.365-5.328 1.094a14.03 14.03 0 0 0-4.406 2.984 14.39 14.39 0 0 0-2.984 4.407c-.72 1.666-1.078 3.442-1.078 5.328 0 1.885.359 3.661 1.078 5.328a14.253 14.253 0 0 0 3 4.406 14.028 14.028 0 0 0 4.406 2.984c1.667.73 3.443 1.094 5.328 1.094z" fill="#E6906C"/>
    </g>
    <defs>
        <linearGradient id="sru4kmt0wb" x1="80" y1="0" x2="-2.89" y2="3.116" gradientUnits="userSpaceOnUse">
            <stop stop-color="#FEF1DE"/>
            <stop offset="1" stop-color="#FDE8E3"/>
        </linearGradient>
        <clipPath id="vtum7s5sea">
            <rect width="80" height="80" rx="24" fill="#fff"/>
        </clipPath>
    </defs>
</svg>
