<svg width="16" height="16" viewBox="0 0 16 16" fill="none" xmlns="http://www.w3.org/2000/svg">
    <path fill-rule="evenodd" clip-rule="evenodd" d="M8 16c4.377 0 8-3.631 8-8 0-4.376-3.631-8-8.008-8C3.624 0 0 3.624 0 8c0 4.369 3.631 8 8 8zM4.753 3.616a5.37 5.37 0 0 1-1.443-.698 6.965 6.965 0 0 1 2.792-1.585c-.541.55-1.004 1.326-1.35 2.283zM9.906 1.34c.533.55.996 1.326 1.341 2.275.557-.18 1.043-.408 1.443-.69A7.042 7.042 0 0 0 9.906 1.34zM7.49 4.055a12.671 12.671 0 0 1-1.725-.18c.439-1.2 1.05-2.063 1.725-2.361v2.54zm1.028-2.541v2.54a12.686 12.686 0 0 0 1.717-.18c-.439-1.2-1.05-2.062-1.717-2.36zm-4.47 5.968H1.081a6.929 6.929 0 0 1 1.53-3.82c.486.37 1.113.675 1.843.91a13.7 13.7 0 0 0-.408 2.91zm7.905 0h2.965a6.833 6.833 0 0 0-1.538-3.811c-.478.36-1.106.666-1.835.902.228.878.369 1.858.408 2.91zm-1.051 0H8.518v-2.4c.706-.023 1.38-.11 2.015-.243.204.808.33 1.702.369 2.643zm-5.804 0H7.49v-2.4a11.712 11.712 0 0 1-2.023-.243 13.68 13.68 0 0 0-.369 2.643zm-2.463 4.879A6.915 6.915 0 0 1 1.082 8.51h2.965c.04 1.074.18 2.063.408 2.949-.722.235-1.341.541-1.82.902zM5.098 8.51c.031.957.173 1.867.384 2.682a12.349 12.349 0 0 1 2.008-.235V8.51H5.098zm5.42 2.682a12.25 12.25 0 0 0-2-.235V8.51h2.384a12.35 12.35 0 0 1-.384 2.682zm1.027.267c.722.235 1.341.541 1.82.902a6.915 6.915 0 0 0 1.553-3.851h-2.965a13.939 13.939 0 0 1-.408 2.949zm-3.027 3.035v-2.51c.604.024 1.176.079 1.702.18-.44 1.17-1.044 2.032-1.702 2.33zm-2.738-2.33c.44 1.17 1.044 2.032 1.71 2.33v-2.51c-.612.024-1.184.079-1.71.18zm4.134 2.495c.525-.541.98-1.31 1.325-2.243.55.18 1.028.407 1.428.682a7.065 7.065 0 0 1-2.753 1.56zm-6.58-1.561a7.095 7.095 0 0 0 2.76 1.56c-.533-.54-.988-1.309-1.333-2.242a5.61 5.61 0 0 0-1.428.682z" fill="#35405E"/>
</svg>
