<svg width="24" height="24" viewBox="0 0 24 24" fill="none" xmlns="http://www.w3.org/2000/svg">
    <path d="M14.862 5c.21 0 .402.05.575.148.173.098.31.24.41.425.102.185.153.383.153.596 0 .323-.117.606-.35.85L10.715 12l4.937 4.981c.232.244.349.527.349.85 0 .22-.05.421-.152.602s-.239.321-.411.42a1.14 1.14 0 0 1-.575.147c-.315 0-.582-.11-.8-.33l-5.69-5.785a1.105 1.105 0 0 1-.288-.407A1.315 1.315 0 0 1 8 12c0-.173.028-.333.084-.478.057-.146.152-.282.288-.408l5.69-5.783c.218-.22.485-.331.8-.331z" fill="#FEFFFF"/>
</svg>
