<svg width="40" height="40" viewBox="0 0 40 40" fill="none" xmlns="http://www.w3.org/2000/svg">
    <path d="M18.138 13c-.21 0-.402.05-.575.148-.172.098-.31.24-.41.425a1.22 1.22 0 0 0-.153.596c0 .323.116.606.35.85L22.284 20l-4.936 4.981c-.233.244-.349.527-.349.85 0 .22.05.421.152.602.101.181.238.321.411.42.173.098.364.147.575.147.315 0 .582-.11.8-.33l5.69-5.785c.136-.125.231-.261.288-.407.056-.145.084-.305.084-.478s-.028-.333-.084-.478a1.104 1.104 0 0 0-.288-.407l-5.69-5.784a1.08 1.08 0 0 0-.8-.331z" fill="#004492"/>
    <rect x="1" y="1" width="38" height="38" rx="11" stroke="#004492" stroke-width="2"/>
</svg>
