<svg width="80" height="80" viewBox="0 0 80 80" fill="none" xmlns="http://www.w3.org/2000/svg">
    <g clip-path="url(#zbj8brzs9a)">
        <rect width="80" height="80" rx="24" fill="url(#xwjhd92ktb)"/>
        <path d="M42.156 56.11a.733.733 0 0 1-.515-.204.836.836 0 0 1-.25-.515c-.24-1.709-.5-3.146-.782-4.313-.27-1.156-.635-2.11-1.093-2.86a5.25 5.25 0 0 0-1.813-1.796c-.74-.448-1.687-.807-2.844-1.078-1.145-.282-2.562-.532-4.25-.75a.817.817 0 0 1-.547-.25.753.753 0 0 1-.203-.532c0-.197.068-.37.203-.515a.816.816 0 0 1 .547-.25c1.688-.188 3.11-.412 4.266-.672 1.156-.26 2.11-.62 2.86-1.078a5.342 5.342 0 0 0 1.812-1.828c.458-.76.823-1.724 1.094-2.89.28-1.178.53-2.626.75-4.345a.822.822 0 0 1 .25-.5.733.733 0 0 1 .515-.203c.209 0 .38.068.516.203a.898.898 0 0 1 .266.5c.218 1.72.463 3.167.734 4.344.281 1.167.646 2.13 1.094 2.89a5.342 5.342 0 0 0 1.812 1.829c.75.458 1.703.818 2.86 1.078 1.156.26 2.583.484 4.28.672a.8.8 0 0 1 .532.25.733.733 0 0 1 .203.516.753.753 0 0 1-.203.53.801.801 0 0 1-.531.25c-1.698.188-3.125.412-4.282.673-1.156.26-2.109.62-2.859 1.078a5.207 5.207 0 0 0-1.812 1.812c-.448.76-.813 1.73-1.094 2.907-.271 1.177-.516 2.62-.734 4.328a.91.91 0 0 1-.266.515.698.698 0 0 1-.516.203zM31.563 38.827c-.313 0-.49-.172-.532-.516-.125-1.041-.26-1.859-.406-2.453-.135-.593-.36-1.036-.672-1.328-.302-.302-.76-.531-1.375-.687-.604-.157-1.437-.323-2.5-.5-.354-.052-.531-.23-.531-.532 0-.291.156-.463.469-.515a47.997 47.997 0 0 0 2.53-.547c.616-.167 1.079-.396 1.392-.688.312-.291.541-.724.687-1.296.146-.584.281-1.396.406-2.438.042-.344.219-.515.532-.515.312 0 .49.166.53.5.136 1.052.272 1.88.407 2.484.146.604.37 1.062.672 1.375.312.302.776.526 1.39.672.615.146 1.464.297 2.547.453.136.01.245.062.328.156.094.094.141.214.141.36 0 .291-.156.468-.469.53a36.9 36.9 0 0 0-2.547.563c-.604.157-1.062.386-1.374.688-.303.291-.527.729-.672 1.312-.146.584-.287 1.396-.422 2.438a.603.603 0 0 1-.172.343.487.487 0 0 1-.36.141zm7.562-10.75c-.198 0-.313-.104-.344-.312a28.199 28.199 0 0 0-.328-1.5c-.083-.365-.219-.641-.406-.828-.177-.198-.453-.355-.828-.47-.375-.114-.901-.228-1.578-.343-.209-.042-.313-.162-.313-.36 0-.187.104-.302.313-.343a19.4 19.4 0 0 0 1.578-.344c.375-.114.65-.265.828-.453.187-.198.323-.48.406-.844.094-.364.203-.864.328-1.5.032-.208.146-.312.344-.312.188 0 .302.104.344.312.114.636.218 1.136.312 1.5.094.365.23.646.407.844.187.188.468.338.843.453a19.4 19.4 0 0 0 1.578.344c.209.041.313.156.313.344 0 .198-.104.317-.313.359-.677.115-1.203.23-1.578.344-.375.114-.656.27-.843.468-.178.188-.313.464-.407.829a22.07 22.07 0 0 0-.312 1.5c-.042.208-.157.312-.344.312z" fill="#E6906C"/>
    </g>
    <defs>
        <linearGradient id="xwjhd92ktb" x1="80" y1="0" x2="-2.89" y2="3.116" gradientUnits="userSpaceOnUse">
            <stop stop-color="#FEF1DE"/>
            <stop offset="1" stop-color="#FDE8E3"/>
        </linearGradient>
        <clipPath id="zbj8brzs9a">
            <rect width="80" height="80" rx="24" fill="#fff"/>
        </clipPath>
    </defs>
</svg>
